<?xml version="1.0"?>
<svg xmlns="http://www.w3.org/2000/svg" xmlns:xlink="http://www.w3.org/1999/xlink" xmlns:svgjs="http://svgjs.com/svgjs" version="1.1" width="512" height="512" x="0" y="0" viewBox="0 0 512.015 512.015" style="enable-background:new 0 0 512 512" xml:space="preserve" class=""><g transform="matrix(1,0,0,1,0,0)">
<path xmlns="http://www.w3.org/2000/svg" style="" d="M509.739,89.437c-2.022-2.586-5.122-4.097-8.405-4.096H96c-5.891-0.001-10.668,4.773-10.669,10.664  c0,0.717,0.072,1.433,0.216,2.136l42.667,213.333c1.079,5.531,6.274,9.269,11.861,8.533l320-42.667c4.339-0.58,7.883-3.752,8.939-8  L511.68,98.674C512.505,95.461,511.787,92.046,509.739,89.437z" fill="#ffc107" data-original="#ffc107" class=""/>
<g xmlns="http://www.w3.org/2000/svg">
	<circle style="" cx="394.667" cy="437.341" r="53.333" fill="#1c2022" data-original="#455a64" class=""/>
	<circle style="" cx="181.333" cy="437.341" r="53.333" fill="#1c2022" data-original="#455a64" class=""/>
	<path style="" d="M191.125,362.674h246.208c5.891,0,10.667-4.776,10.667-10.667c0-5.891-4.776-10.667-10.667-10.667   H191.125c-25.408-0.053-47.272-17.976-52.309-42.88L85.12,29.874c-1.014-4.967-5.384-8.534-10.453-8.533h-64   C4.776,21.341,0,26.116,0,32.007s4.776,10.667,10.667,10.667H65.92l51.989,259.968   C124.954,337.505,155.557,362.598,191.125,362.674z" fill="#1c2022" data-original="#455a64" class=""/>
</g>
<g xmlns="http://www.w3.org/2000/svg">
</g>
<g xmlns="http://www.w3.org/2000/svg">
</g>
<g xmlns="http://www.w3.org/2000/svg">
</g>
<g xmlns="http://www.w3.org/2000/svg">
</g>
<g xmlns="http://www.w3.org/2000/svg">
</g>
<g xmlns="http://www.w3.org/2000/svg">
</g>
<g xmlns="http://www.w3.org/2000/svg">
</g>
<g xmlns="http://www.w3.org/2000/svg">
</g>
<g xmlns="http://www.w3.org/2000/svg">
</g>
<g xmlns="http://www.w3.org/2000/svg">
</g>
<g xmlns="http://www.w3.org/2000/svg">
</g>
<g xmlns="http://www.w3.org/2000/svg">
</g>
<g xmlns="http://www.w3.org/2000/svg">
</g>
<g xmlns="http://www.w3.org/2000/svg">
</g>
<g xmlns="http://www.w3.org/2000/svg">
</g>
</g></svg>
